<svg width="24" height="24" viewBox="0 0 24 24" fill="currentColor" xmlns="http://www.w3.org/2000/svg">
  <path d="M12 1.5a2.9 2.9 0 1 1 0 5.8 2.9 2.9 0 0 1 0-5.8Z"/>
  <path d="M11.2 6.5a.8.8 0 0 1 1.6 0V21a.8.8 0 0 1-1.6 0V6.5Z"/>
  <path d="M11.45 11.1c.5.28 1.45 1.22 1.34 2.57-.12 1.55-1.38 2.93-2.84 4.2-1.3 1.13-2.62 2.26-3.02 3.53a.8.8 0 0 1-1.53-.48c.53-1.68 2.1-3.04 3.5-4.25 1.2-1.04 2.22-2.01 2.3-3.13.05-.6-.33-1.01-.55-1.13l.8-1.31Z"/>
  <path d="M12.55 11.1c-.5.28-1.45 1.22-1.34 2.57.12 1.55 1.38 2.93 2.84 4.2 1.3 1.13 2.62 2.26 3.02 3.53a.8.8 0 0 0 1.53-.48c-.53-1.68-2.1-3.04-3.5-4.25-1.2-1.04-2.22-2.01-2.3-3.13-.05-.6.33-1.01.55-1.13l-.8-1.31Z"/>
  <path d="M8.06 17.19a.8.8 0 0 1 1.48.62l-1.2 2.9a.8.8 0 0 1-1.48-.62l1.2-2.9Z"/>
  <path d="M15.94 17.19a.8.8 0 0 0-1.48.62l1.2 2.9a.8.8 0 0 0 1.48-.62l-1.2-2.9Z"/>
</svg>
